REM DIRINDEX 1\2\6,1\2\7,1\2\8,1\3\9,1\3\10,1\3\11,1\4\12,1\4\13,1\4\14,1\5\15,1\5\16,1\5\17,1\5\18
REM DIRNAME cjc019,folder01,folder02,folder03,folder04,folder05,folder06,folder07,folder08,folder09,folder10,folder11,folder12,folder13,folder14,folder15,folder16,folder17
TITLE ""
FILE "2Q_t_1126-1143.mp3" MP3
  TRACK 01 AUDIO
    TITLE "13:cjc019_4315"
    INDEX 01 00:00:00
  TRACK 02 AUDIO
    TITLE "0:"
    INDEX 01 00:01:03
  TRACK 03 AUDIO
    TITLE "14:cjc019_4316"
    INDEX 01 00:01:60
  TRACK 04 AUDIO
    TITLE "0:"
    INDEX 01 00:03:15
  TRACK 05 AUDIO
    TITLE "13:cjc019_4317"
    INDEX 01 00:03:70
  TRACK 06 AUDIO
    TITLE "0:"
    INDEX 01 00:05:10
  TRACK 07 AUDIO
    TITLE "14:cjc019_4318"
    INDEX 01 00:05:63
  TRACK 08 AUDIO
    TITLE "0:"
    INDEX 01 00:08:70
  TRACK 09 AUDIO
    TITLE "13:cjc019_4319"
    INDEX 01 00:09:51
  TRACK 10 AUDIO
    TITLE "0:"
    INDEX 01 00:10:68
  TRACK 11 AUDIO
    TITLE "14:cjc019_4320"
    INDEX 01 00:11:50
  TRACK 12 AUDIO
    TITLE "0:"
    INDEX 01 00:15:01
  TRACK 13 AUDIO
    TITLE "13:cjc019_4321"
    INDEX 01 00:15:64
  TRACK 14 AUDIO
    TITLE "0:"
    INDEX 01 00:16:73
  TRACK 15 AUDIO
    TITLE "14:cjc019_4322"
    INDEX 01 00:17:61
  TRACK 16 AUDIO
    TITLE "0:"
    INDEX 01 00:20:04
  TRACK 17 AUDIO
    TITLE "13:cjc019_4323"
    INDEX 01 00:20:59
  TRACK 18 AUDIO
    TITLE "0:"
    INDEX 01 00:22:19
  TRACK 19 AUDIO
    TITLE "14:cjc019_4324"
    INDEX 01 00:23:01
  TRACK 20 AUDIO
    TITLE "0:"
    INDEX 01 00:28:55
  TRACK 21 AUDIO
    TITLE "13:cjc019_4325"
    INDEX 01 00:29:36
  TRACK 22 AUDIO
    TITLE "0:"
    INDEX 01 00:30:61
  TRACK 23 AUDIO
    TITLE "14:cjc019_4326"
    INDEX 01 00:31:39
  TRACK 24 AUDIO
    TITLE "0:"
    INDEX 01 00:34:10
  TRACK 25 AUDIO
    TITLE "13:cjc019_4327"
    INDEX 01 00:34:67
  TRACK 26 AUDIO
    TITLE "0:"
    INDEX 01 00:36:13
  TRACK 27 AUDIO
    TITLE "14:cjc019_4328"
    INDEX 01 00:36:70
  TRACK 28 AUDIO
    TITLE "0:"
    INDEX 01 00:38:18
  TRACK 29 AUDIO
    TITLE "13:cjc019_4329"
    INDEX 01 00:39:02
  TRACK 30 AUDIO
    TITLE "0:"
    INDEX 01 00:40:13
  TRACK 31 AUDIO
    TITLE "14:cjc019_4330"
    INDEX 01 00:40:66
  TRACK 32 AUDIO
    TITLE "0:"
    INDEX 01 00:42:06
  TRACK 33 AUDIO
    TITLE "13:cjc019_4331"
    INDEX 01 00:42:59
  TRACK 34 AUDIO
    TITLE "0:"
    INDEX 01 00:44:01
  TRACK 35 AUDIO
    TITLE "14:cjc019_4332"
    INDEX 01 00:44:60
  TRACK 36 AUDIO
    TITLE "0:"
    INDEX 01 00:47:15
  TRACK 37 AUDIO
    TITLE "13:cjc019_4333"
    INDEX 01 00:47:70
  TRACK 38 AUDIO
    TITLE "0:"
    INDEX 01 00:49:21
  TRACK 39 AUDIO
    TITLE "14:cjc019_4334"
    INDEX 01 00:50:09
  TRACK 40 AUDIO
    TITLE "0:"
    INDEX 01 00:52:37
  TRACK 41 AUDIO
    TITLE "13:cjc019_4335"
    INDEX 01 00:53:15
  TRACK 42 AUDIO
    TITLE "0:"
    INDEX 01 00:54:40
  TRACK 43 AUDIO
    TITLE "14:cjc019_4336"
    INDEX 01 00:55:24
  TRACK 44 AUDIO
    TITLE "0:"
    INDEX 01 00:58:17
  TRACK 45 AUDIO
    TITLE "13:cjc019_4337"
    INDEX 01 00:58:73
  TRACK 46 AUDIO
    TITLE "0:"
    INDEX 01 01:00:21
  TRACK 47 AUDIO
    TITLE "14:cjc019_4338"
    INDEX 01 01:01:05
  TRACK 48 AUDIO
    TITLE "0:"
    INDEX 01 01:04:66
  TRACK 49 AUDIO
    TITLE "13:cjc019_4339"
    INDEX 01 01:05:42
  TRACK 50 AUDIO
    TITLE "0:"
    INDEX 01 01:06:67
  TRACK 51 AUDIO
    TITLE "14:cjc019_4340"
    INDEX 01 01:07:43
  TRACK 52 AUDIO
    TITLE "0:"
    INDEX 01 01:08:58
  TRACK 53 AUDIO
    TITLE "13:cjc019_4341"
    INDEX 01 01:09:38
  TRACK 54 AUDIO
    TITLE "0:"
    INDEX 01 01:10:49
  TRACK 55 AUDIO
    TITLE "14:cjc019_4342"
    INDEX 01 01:11:33
  TRACK 56 AUDIO
    TITLE "0:"
    INDEX 01 01:12:58
  TRACK 57 AUDIO
    TITLE "13:cjc019_4343"
    INDEX 01 01:13:38
  TRACK 58 AUDIO
    TITLE "0:"
    INDEX 01 01:14:49
  TRACK 59 AUDIO
    TITLE "14:cjc019_4344"
    INDEX 01 01:15:33
  TRACK 60 AUDIO
    TITLE "0:"
    INDEX 01 01:18:23
  TRACK 61 AUDIO
    TITLE "13:cjc019_4345"
    INDEX 01 01:19:03
  TRACK 62 AUDIO
    TITLE "0:"
    INDEX 01 01:20:08
  TRACK 63 AUDIO
    TITLE "14:cjc019_4346"
    INDEX 01 01:20:61
  TRACK 64 AUDIO
    TITLE "0:"
    INDEX 01 01:23:09
  TRACK 65 AUDIO
    TITLE "13:cjc019_4347"
    INDEX 01 01:23:62
  TRACK 66 AUDIO
    TITLE "0:"
    INDEX 01 01:25:17
  TRACK 67 AUDIO
    TITLE "14:cjc019_4348"
    INDEX 01 01:25:68
  TRACK 68 AUDIO
    TITLE "0:"
    INDEX 01 01:28:24
  TRACK 69 AUDIO
    TITLE "13:cjc019_4349"
    INDEX 01 01:29:03
  TRACK 70 AUDIO
    TITLE "0:"
    INDEX 01 01:30:34
  TRACK 71 AUDIO
    TITLE "14:cjc019_4350"
    INDEX 01 01:31:12
  TRACK 72 AUDIO
    TITLE "0:"
    INDEX 01 01:34:05
